<svg width="1200" height="720" viewBox="0 0 1200 720" fill="none" xmlns="http://www.w3.org/2000/svg">
  <rect width="1200" height="720" rx="28" fill="#ECFEFF"/>
  <rect x="48" y="48" width="1104" height="624" rx="24" fill="white" stroke="#BAE6FD" stroke-width="4"/>

  <!-- Top header: project info -->
  <rect x="88" y="110" width="1024" height="180" rx="22" fill="#F0F9FF" stroke="#BAE6FD" stroke-width="4"/>
  <text x="120" y="160" fill="#0E7490" font-size="14" font-weight="800" letter-spacing="3" font-family="Arial, sans-serif">井原工務店</text>
  <text x="120" y="208" fill="#071B49" font-size="42" font-weight="900" font-family="Arial, sans-serif">山田邸 新築工事</text>
  <text x="120" y="246" fill="#33496D" font-size="22" font-weight="700" font-family="Arial, sans-serif">山田 健一 様 のお家を 進めています</text>

  <rect x="846" y="148" width="240" height="100" rx="18" fill="white" stroke="#BAE6FD" stroke-width="4"/>
  <text x="966" y="184" fill="#0E7490" font-size="14" font-weight="800" letter-spacing="3" text-anchor="middle" font-family="Arial, sans-serif">現在の 進捗</text>
  <text x="966" y="226" fill="#071B49" font-size="44" font-weight="900" text-anchor="middle" font-family="Arial, sans-serif">62%</text>

  <!-- Progress bar -->
  <rect x="120" y="262" width="844" height="14" rx="7" fill="#E0F2FE"/>
  <rect x="120" y="262" width="523" height="14" rx="7" fill="#0E7490"/>

  <!-- Timeline -->
  <text x="120" y="334" fill="#071B49" font-size="22" font-weight="900" font-family="Arial, sans-serif">工事の流れ</text>

  <!-- Connecting line -->
  <line x1="156" y1="382" x2="156" y2="612" stroke="#BAE6FD" stroke-width="3"/>

  <!-- Step 1: 完了 -->
  <circle cx="156" cy="382" r="20" fill="#94A3B8"/>
  <text x="156" y="389" fill="white" font-size="20" font-weight="900" text-anchor="middle" font-family="Arial, sans-serif">✓</text>
  <text x="200" y="378" fill="#071B49" font-size="22" font-weight="900" font-family="Arial, sans-serif">解体・地盤改良</text>
  <text x="200" y="402" fill="#5F6F89" font-size="16" font-weight="700" font-family="Arial, sans-serif">2026年2月12日 完了</text>
  <rect x="916" y="362" width="100" height="32" rx="16" fill="#DCFCE7"/>
  <text x="966" y="384" fill="#166534" font-size="16" font-weight="800" text-anchor="middle" font-family="Arial, sans-serif">完了</text>

  <!-- Step 2: 完了 -->
  <circle cx="156" cy="448" r="20" fill="#3B82F6"/>
  <text x="156" y="455" fill="white" font-size="20" font-weight="900" text-anchor="middle" font-family="Arial, sans-serif">✓</text>
  <text x="200" y="444" fill="#071B49" font-size="22" font-weight="900" font-family="Arial, sans-serif">基礎工事</text>
  <text x="200" y="468" fill="#5F6F89" font-size="16" font-weight="700" font-family="Arial, sans-serif">2026年3月8日 完了 / 写真 32枚</text>
  <rect x="916" y="428" width="100" height="32" rx="16" fill="#DCFCE7"/>
  <text x="966" y="450" fill="#166534" font-size="16" font-weight="800" text-anchor="middle" font-family="Arial, sans-serif">完了</text>

  <!-- Step 3: 完了 -->
  <circle cx="156" cy="514" r="20" fill="#F97316"/>
  <text x="156" y="521" fill="white" font-size="20" font-weight="900" text-anchor="middle" font-family="Arial, sans-serif">✓</text>
  <text x="200" y="510" fill="#071B49" font-size="22" font-weight="900" font-family="Arial, sans-serif">上棟</text>
  <text x="200" y="534" fill="#5F6F89" font-size="16" font-weight="700" font-family="Arial, sans-serif">2026年4月2日 完了 / 写真 24枚</text>
  <rect x="916" y="494" width="100" height="32" rx="16" fill="#DCFCE7"/>
  <text x="966" y="516" fill="#166534" font-size="16" font-weight="800" text-anchor="middle" font-family="Arial, sans-serif">完了</text>

  <!-- Step 4: 進行中 -->
  <circle cx="156" cy="580" r="20" fill="#0E7490"/>
  <rect x="148" y="572" width="16" height="16" rx="3" fill="white"/>
  <text x="200" y="576" fill="#071B49" font-size="22" font-weight="900" font-family="Arial, sans-serif">屋根・外壁工事</text>
  <text x="200" y="600" fill="#5F6F89" font-size="16" font-weight="700" font-family="Arial, sans-serif">サイディング張り 50% / 写真 12枚</text>
  <rect x="916" y="560" width="100" height="32" rx="16" fill="#FEF3C7"/>
  <text x="966" y="582" fill="#B45309" font-size="16" font-weight="800" text-anchor="middle" font-family="Arial, sans-serif">進行中</text>
</svg>
